<?xml version="1.0" standalone="no"?>
<!DOCTYPE svg PUBLIC "-//W3C//DTD SVG 20010904//EN"
 "http://www.w3.org/TR/2001/REC-SVG-20010904/DTD/svg10.dtd">
<svg version="1.0" xmlns="http://www.w3.org/2000/svg"
 width="1024.000000pt" height="1024.000000pt" viewBox="0 0 1024.000000 1024.000000"
 preserveAspectRatio="xMidYMid meet">

<g transform="translate(0.000000,1024.000000) scale(0.100000,-0.100000)"
fill="#000000" stroke="none">
<path d="M5135 6633 c-100 -36 -167 -107 -234 -246 -42 -89 -218 -530 -511
-1282 -35 -88 -125 -318 -201 -512 -77 -194 -139 -358 -139 -366 0 -30 218
-217 368 -314 273 -179 637 -268 957 -234 410 44 745 199 1053 489 45 42 53
54 47 74 -22 74 -275 715 -547 1388 -308 761 -343 836 -436 926 -63 62 -125
87 -222 91 -63 3 -98 -1 -135 -14z m179 -471 c153 -427 695 -1877 712 -1903 3
-6 -41 -9 -118 -7 l-123 3 -88 235 c-48 129 -99 265 -113 303 l-26 67 -291 -2
-291 -3 -28 -75 c-28 -73 -156 -421 -181 -490 l-13 -35 -122 -3 c-131 -3 -138
0 -112 49 6 10 60 155 119 321 125 349 223 614 286 778 25 63 101 261 169 440
141 368 166 430 175 430 3 0 23 -49 45 -108z"/>
<path d="M5253 5670 c-18 -43 -185 -534 -190 -557 l-5 -23 201 0 c110 0 201 2
201 4 0 2 -16 50 -36 107 -36 106 -132 395 -151 459 l-10 35 -10 -25z"/>
</g>
</svg>
